<svg width="22" height="22" viewBox="0 0 22 22" fill="none" xmlns="http://www.w3.org/2000/svg">
<path fill-rule="evenodd" clip-rule="evenodd" d="M12.6076 1.41729C12.6533 1.0056 13.0241 0.708931 13.4358 0.754648C17.4851 1.20433 20.6843 4.39907 21.1384 8.44849C21.1845 8.86012 20.8882 9.23124 20.4766 9.2774C20.065 9.32355 19.6939 9.02728 19.6477 8.61564C19.2718 5.26306 16.623 2.61781 13.2703 2.24548C12.8586 2.19977 12.5619 1.82897 12.6076 1.41729Z" fill="white" fill-opacity="0.8"/>
<path fill-rule="evenodd" clip-rule="evenodd" d="M12.6167 4.89998C12.6957 4.49337 13.0894 4.22777 13.496 4.30675C15.5675 4.70911 17.1858 6.32901 17.5891 8.39958C17.6683 8.80615 17.403 9.19995 16.9964 9.27915C16.5898 9.35835 16.196 9.09297 16.1168 8.68639C15.8302 7.21497 14.6805 6.06486 13.21 5.77923C12.8034 5.70025 12.5378 5.30659 12.6167 4.89998Z" fill="white" fill-opacity="0.8"/>
<path fill-rule="evenodd" clip-rule="evenodd" d="M2.62337 3.79523C2.58097 3.84287 2.53586 3.88675 2.51081 3.91112C2.50793 3.91392 2.50532 3.91646 2.50301 3.91872L2.49953 3.92212C2.45706 3.9636 2.41569 4.00402 2.37019 4.05191C2.27874 4.14818 2.17594 4.2695 2.08048 4.42419C1.89583 4.72339 1.71305 5.18755 1.75647 5.89842C1.84606 7.36528 2.90881 9.98446 7.21473 14.2893C11.5201 18.5936 14.1388 19.6549 15.605 19.7437C16.3156 19.7867 16.7795 19.6037 17.0785 19.4188C17.2331 19.3233 17.3544 19.2204 17.4507 19.1288C17.4985 19.0834 17.5388 19.0421 17.5803 18.9996L17.5839 18.9959C17.5862 18.9936 17.5887 18.9909 17.5915 18.9881C17.6159 18.963 17.6599 18.9177 17.7077 18.8752C18.4565 18.1249 18.8773 17.5853 19.0869 17.1753C19.2819 16.7939 19.2713 16.5744 19.212 16.3954C19.1345 16.1613 18.9337 15.8776 18.5155 15.4488C18.3132 15.2414 18.0802 15.0194 17.811 14.7634L17.7963 14.7494C17.5342 14.5001 17.243 14.2231 16.9351 13.9153M2.62337 3.79523C3.37587 3.04464 3.91659 2.62304 4.32707 2.4131C4.70889 2.21781 4.92785 2.22886 5.10605 2.2881C5.33972 2.36577 5.62287 2.5669 6.05148 2.98587C6.25878 3.18851 6.48065 3.42179 6.73665 3.69121L6.74225 3.6971C6.99376 3.96179 7.27354 4.25623 7.58502 4.56763C8.11074 5.09345 8.18163 5.43753 8.17512 5.69016C8.17114 5.84459 8.13585 6.01552 8.06875 6.2335C8.03525 6.34229 7.99656 6.45451 7.95253 6.58063C7.94816 6.59315 7.94373 6.60583 7.93925 6.61865C7.89993 6.73115 7.85675 6.8547 7.81594 6.981C7.62941 7.55836 7.46144 8.28217 7.67791 9.16411C7.89043 10.03 8.44839 10.9502 9.50126 12.0028C10.5541 13.0554 11.4744 13.6131 12.3403 13.8252C13.2222 14.0413 13.9459 13.8728 14.523 13.6858C14.6492 13.6449 14.7727 13.6017 14.8852 13.5623C14.898 13.5578 14.9106 13.5533 14.9231 13.5489C15.0492 13.5048 15.1613 13.4661 15.2701 13.4325C15.4879 13.3653 15.6587 13.3299 15.813 13.3258C16.0652 13.3192 16.4092 13.3898 16.9351 13.9153M7.82511 2.65909C8.07904 2.92633 8.34777 3.20914 8.64566 3.50695C9.3893 4.25072 9.69411 4.97243 9.67462 5.7288C9.6656 6.07887 9.58749 6.39827 9.50234 6.67486C9.45971 6.81335 9.41255 6.94947 9.36871 7.07504C9.36431 7.08765 9.35994 7.10014 9.35561 7.11254C9.3155 7.22734 9.27829 7.33382 9.24329 7.44215C9.0929 7.90766 9.01457 8.31727 9.13467 8.80654C9.25871 9.3119 9.62016 10.0006 10.5618 10.942C11.5034 11.8834 12.1921 12.2445 12.6972 12.3683C13.1862 12.4881 13.5955 12.4095 14.0607 12.2588C14.169 12.2238 14.2754 12.1865 14.3901 12.1463C14.4025 12.142 14.415 12.1376 14.4276 12.1332C14.5531 12.0892 14.6892 12.042 14.8276 11.9992C15.1041 11.9139 15.4234 11.8356 15.7734 11.8263C16.5298 11.8064 17.2515 12.1109 17.9954 12.8543C18.2899 13.1488 18.5698 13.4149 18.8343 13.6665L18.8448 13.6765C19.1092 13.928 19.3637 14.1702 19.5893 14.4015C20.0269 14.8501 20.4433 15.3418 20.636 15.924C20.847 16.5612 20.7596 17.1989 20.4224 17.8583C20.1016 18.4856 19.54 19.1647 18.749 19.9552C18.7339 19.9703 18.7182 19.9847 18.7019 19.9984C18.7008 19.9998 18.6886 20.0116 18.6572 20.0437L18.6504 20.0507C18.6103 20.0919 18.5528 20.1507 18.4844 20.2158C18.3373 20.3556 18.1342 20.5297 17.8671 20.6948C17.3228 21.0312 16.5543 21.3039 15.5144 21.2409C13.4798 21.1177 10.5256 19.7204 6.15421 15.3501C1.78226 10.9792 0.383553 8.02482 0.25926 5.98986C0.195736 4.94982 0.467903 4.18102 0.803986 3.63643C0.96889 3.36921 1.1429 3.16593 1.28269 3.01878C1.34794 2.95011 1.40687 2.89256 1.44808 2.85231C1.45038 2.85007 1.45262 2.84788 1.45481 2.84574C1.48724 2.81407 1.499 2.80191 1.50024 2.80089C1.51401 2.78454 1.52848 2.76878 1.54359 2.75366C2.33606 1.96113 3.01624 1.39873 3.64403 1.07764C4.30394 0.740121 4.94188 0.652811 5.57923 0.864685C6.16113 1.05812 6.65221 1.47549 7.10001 1.91322C7.33 2.13804 7.57087 2.39153 7.82102 2.65479L7.82511 2.65909Z" fill="white" fill-opacity="0.8"/>
</svg>
