<svg width="18" height="20" viewBox="0 0 18 20" fill="none" xmlns="http://www.w3.org/2000/svg">
<path fill-rule="evenodd" clip-rule="evenodd" d="M5.75 8.50051C5.75 6.70502 7.20502 5.25 9.00051 5.25C10.7952 5.25 12.25 6.70522 12.25 8.50051C12.25 10.295 10.795 11.75 9.00051 11.75C7.20522 11.75 5.75 10.2952 5.75 8.50051ZM9.00051 6.75C8.03345 6.75 7.25 7.53345 7.25 8.50051C7.25 9.46635 8.03325 10.25 9.00051 10.25C9.96655 10.25 10.75 9.46655 10.75 8.50051C10.75 7.53325 9.96635 6.75 9.00051 6.75Z" fill="white" fill-opacity="0.8"/>
<path fill-rule="evenodd" clip-rule="evenodd" d="M8.99951 1.75C5.27735 1.75 2.25 4.79478 2.25 8.56329C2.25 10.9566 3.67999 13.3915 5.36109 15.2843C6.19047 16.2181 7.05226 16.987 7.76813 17.5165C8.12689 17.7819 8.43774 17.9788 8.68043 18.1056C8.86545 18.2023 8.96641 18.2342 8.99951 18.2448C9.03263 18.2342 9.13361 18.2022 9.31866 18.1056C9.56138 17.9788 9.87227 17.7819 10.2311 17.5165C10.947 16.987 11.809 16.218 12.6385 15.2842C14.3198 13.3914 15.75 10.9565 15.75 8.56329C15.75 4.79491 12.7218 1.75 8.99951 1.75ZM0.75 8.56329C0.75 3.97849 4.43685 0.25 8.99951 0.25C13.562 0.25 17.25 3.97836 17.25 8.56329C17.25 11.5051 15.5292 14.2886 13.7599 16.2804C12.8641 17.2889 11.9258 18.1288 11.1231 18.7225C10.7225 19.0188 10.3444 19.2621 10.0131 19.4351C9.71823 19.5892 9.34696 19.75 8.99951 19.75C8.65205 19.75 8.28079 19.5892 7.98592 19.4351C7.65462 19.2621 7.27658 19.0187 6.87608 18.7225C6.07343 18.1287 5.13525 17.2888 4.23957 16.2803C2.47053 14.2885 0.75 11.5051 0.75 8.56329Z" fill="white" fill-opacity="0.8"/>
</svg>
