<svg width="20" height="18" viewBox="0 0 20 18" fill="none" xmlns="http://www.w3.org/2000/svg">
<path fill-rule="evenodd" clip-rule="evenodd" d="M3.41618 5.52925C3.67619 5.2068 4.14835 5.15618 4.4708 5.41618L8.94903 9.02716C9.51431 9.47407 10.306 9.47437 10.8716 9.02804L15.311 5.41812C15.6324 5.1568 16.1048 5.20548 16.3661 5.52686C16.6274 5.84823 16.5788 6.3206 16.2574 6.58193L11.8071 10.2007C10.6946 11.0833 9.12719 11.0832 8.01468 10.2006L8.01002 10.1969L3.52925 6.58387C3.2068 6.32387 3.15618 5.8517 3.41618 5.52925Z" fill="white" fill-opacity="0.8"/>
<path fill-rule="evenodd" clip-rule="evenodd" d="M14.913 16.5C16.9548 16.5056 18.5 14.8598 18.5 12.4384V5.57001C18.5 3.14977 16.9548 1.5 14.9089 1.5H5.09114C3.0452 1.5 1.5 3.14977 1.5 5.57001V12.4384C1.5 14.8598 3.04521 16.5056 5.08699 16.5L5.09114 16.5L14.913 16.5ZM14.9089 18H5.09114C2.04979 18.0084 0 15.5096 0 12.4384V5.57001C0 2.49883 2.04979 0 5.09114 0H14.9089C17.9502 0 20 2.49883 20 5.57001V12.4384C20 15.5096 17.9502 18.0084 14.9089 18Z" fill="white" fill-opacity="0.8"/>
</svg>
